<?xml version="1.0" encoding="utf-8"?>
<!-- Generator: Adobe Illustrator 23.0.1, SVG Export Plug-In . SVG Version: 6.00 Build 0)  -->
<svg version="1.1" id="Layer_1" xmlns="http://www.w3.org/2000/svg" xmlns:xlink="http://www.w3.org/1999/xlink" x="0px" y="0px" style="fill: #bfacaa;"
	 viewBox="0 0 300 300" enable-background="new 0 0 300 300" xml:space="preserve">
<g display="none">
	<g display="inline">
		<path d="M150,0C67.2,0,0,67.2,0,150c0,82.8,67.2,150,150,150s150-67.2,150-150C300,67.2,232.8,0,150,0z M150,52.7l88.8,55.4H61.2
			L150,52.7z M239.9,196.4L239.9,196.4c0,8.9-7.2,16.1-16.1,16.1H76.2c-8.9,0-16.1-7.2-16.1-16.1v-84.9c0-0.9,0.1-1.9,0.3-2.7
			l84.8,52.9c0.1,0.1,0.2,0.1,0.3,0.2c0.1,0.1,0.2,0.1,0.3,0.2c0.6,0.3,1.2,0.6,1.8,0.7c0.1,0,0.1,0,0.2,0c0.7,0.2,1.4,0.3,2.1,0.3
			h0c0,0,0,0,0,0c0.7,0,1.4-0.1,2.1-0.3c0.1,0,0.1,0,0.2,0c0.6-0.2,1.2-0.4,1.8-0.7c0.1-0.1,0.2-0.1,0.3-0.2
			c0.1-0.1,0.2-0.1,0.3-0.2l84.8-52.9c0.2,0.9,0.3,1.8,0.3,2.7L239.9,196.4L239.9,196.4z"/>
	</g>
</g>
<path display="none" d="M150,0C67.2,0,0,67.2,0,150s67.2,150,150,150s150-67.2,150-150S232.8,0,150,0z M106.4,226.8H69.9V116.9h36.5
	V226.8z M88.1,101.8h-0.2c-12.3,0-20.2-8.4-20.2-19c0-10.8,8.2-19,20.7-19s20.2,8.2,20.4,19C108.8,93.4,100.9,101.8,88.1,101.8z
	 M238.1,226.8h-36.5V168c0-14.8-5.3-24.9-18.5-24.9c-10.1,0-16.1,6.8-18.7,13.4c-1,2.3-1.2,5.6-1.2,8.9v61.4h-36.5
	c0,0,0.5-99.6,0-109.9h36.5v15.6c4.9-7.5,13.5-18.1,32.9-18.1c24,0,42.1,15.7,42.1,49.5V226.8z"/>
<g>
	<path d="M279.5,78c-13.4-23-31.6-41.2-54.6-54.6c-23-13.4-48-20.1-75.2-20.1c-27.2,0-52.3,6.7-75.2,20.1
		C51.5,36.9,33.3,55.1,19.9,78c-13.4,23-20.1,48-20.1,75.2c0,32.7,9.5,62,28.6,88.1c19.1,26.1,43.7,44.1,73.9,54.2
		c3.5,0.7,6.1,0.2,7.8-1.4c1.7-1.6,2.5-3.5,2.5-5.9c0-0.4,0-3.9-0.1-10.5c-0.1-6.6-0.1-12.4-0.1-17.4l-4.5,0.8
		c-2.9,0.5-6.5,0.7-10.8,0.7c-4.4-0.1-8.9-0.5-13.6-1.4c-4.7-0.8-9-2.8-13.1-5.9c-4-3.1-6.9-7.1-8.6-12l-2-4.5
		c-1.3-3-3.3-6.3-6.1-10c-2.8-3.6-5.6-6.1-8.5-7.4l-1.4-1c-0.9-0.7-1.8-1.4-2.5-2.3c-0.8-0.9-1.4-1.8-1.8-2.7
		c-0.4-0.9-0.1-1.7,1-2.2c1-0.6,2.9-0.9,5.7-0.9l3.9,0.6c2.6,0.5,5.8,2.1,9.7,4.7c3.8,2.6,7,6,9.5,10.1c3,5.3,6.6,9.4,10.8,12.2
		c4.2,2.8,8.5,4.2,12.8,4.2s8-0.3,11.1-1c3.1-0.7,6-1.6,8.8-2.9c1.2-8.7,4.4-15.4,9.6-20.1c-7.4-0.8-14.1-2-20-3.5
		c-5.9-1.6-12-4.1-18.3-7.6c-6.3-3.5-11.6-7.9-15.7-13.1c-4.2-5.2-7.6-12-10.2-20.5c-2.7-8.5-4-18.2-4-29.3
		c0-15.7,5.1-29.1,15.4-40.2c-4.8-11.8-4.4-25.1,1.4-39.8c3.8-1.2,9.4-0.3,16.8,2.6c7.4,2.9,12.8,5.4,16.3,7.5
		c3.4,2.1,6.2,3.8,8.3,5.3c12.1-3.4,24.6-5.1,37.5-5.1s25.4,1.7,37.5,5.1l7.4-4.7c5.1-3.1,11.1-6,18-8.6c6.9-2.6,12.2-3.3,15.8-2.1
		c5.9,14.7,6.4,28,1.6,39.8c10.3,11.1,15.4,24.5,15.4,40.2c0,11.1-1.3,20.8-4,29.4c-2.7,8.5-6.1,15.4-10.3,20.5
		c-4.2,5.1-9.5,9.5-15.8,13c-6.3,3.5-12.4,6.1-18.3,7.6c-5.9,1.6-12.6,2.7-20,3.5c6.8,5.9,10.1,15.1,10.1,27.7v41.2
		c0,2.3,0.8,4.3,2.4,5.9c1.6,1.6,4.2,2,7.7,1.4c30.2-10,54.8-28.1,73.9-54.2c19.1-26.1,28.6-55.5,28.6-88.1
		C299.6,126.1,292.9,101,279.5,78z"/>
</g>
</svg>
