<?xml version="1.0" encoding="utf-8"?>
<!-- Generator: Adobe Illustrator 23.0.1, SVG Export Plug-In . SVG Version: 6.00 Build 0)  -->
<svg version="1.1" id="Layer_1" xmlns="http://www.w3.org/2000/svg" xmlns:xlink="http://www.w3.org/1999/xlink" x="0px" y="0px"
	 viewBox="0 0 300 300" enable-background="new 0 0 300 300" xml:space="preserve" style="fill: #bfacaa;">
<path display="none" d="M119.8,207.6c-1.1,0-2.2-0.4-3.1-1.1l-30.6-26c-1.1-0.9-1.7-2.2-1.7-3.6c0-1.4,0.6-2.7,1.7-3.6l30.6-26
	c2-1.7,5-1.5,6.7,0.5c1.7,2,1.5,5-0.5,6.7l-26.3,22.4l26.3,22.4c2,1.7,2.2,4.7,0.5,6.7C122.5,207,121.1,207.6,119.8,207.6z"/>
<path display="none" d="M180.1,207.6c-1.3,0-2.7-0.6-3.6-1.7c-1.7-2-1.5-5,0.5-6.7l26.3-22.4l-26.3-22.4c-2-1.7-2.2-4.7-0.5-6.7
	c1.7-2,4.7-2.2,6.7-0.5l30.6,26c1.1,0.9,1.7,2.2,1.7,3.6c0,1.4-0.6,2.7-1.7,3.6l-30.6,26C182.3,207.2,181.2,207.6,180.1,207.6z"/>
<path display="none" d="M139.2,227.1c-0.3,0-0.7,0-1-0.1c-2.6-0.5-4.2-3-3.6-5.6l19-90.4c0.5-2.6,3-4.2,5.6-3.6
	c2.6,0.5,4.2,3,3.6,5.6l-19,90.4C143.3,225.6,141.3,227.1,139.2,227.1z"/>
<path display="none" d="M261.3,276.4H38.7C21.2,276.4,7,262.2,7,244.7v-189C7,38.2,21.2,24,38.7,24h222.6
	c17.5,0,31.7,14.2,31.7,31.7v189C293,262.2,278.8,276.4,261.3,276.4z M38.7,33.4c-12.3,0-22.3,10-22.3,22.3v189
	c0,12.3,10,22.3,22.3,22.3h222.6c12.3,0,22.3-10,22.3-22.3v-189c0-12.3-10-22.3-22.3-22.3H38.7z"/>
<path display="none" d="M288.3,99.6H11.7c-2.6,0-4.7-2.1-4.7-4.7c0-2.6,2.1-4.7,4.7-4.7h276.6c2.6,0,4.7,2.1,4.7,4.7
	C293,97.5,290.9,99.6,288.3,99.6z"/>
<path display="none" d="M87.6,77c-8.2,0-14.9-6.7-14.9-14.9c0-8.2,6.7-14.9,14.9-14.9c8.2,0,14.9,6.7,14.9,14.9
	C102.6,70.3,95.9,77,87.6,77z M87.6,56.6c-3,0-5.5,2.5-5.5,5.5c0,3,2.5,5.5,5.5,5.5c3,0,5.5-2.5,5.5-5.5
	C93.1,59,90.7,56.6,87.6,56.6z"/>
<path display="none" d="M41.7,76.9c-8.2,0-14.9-6.7-14.9-14.9S33.5,47,41.7,47s14.9,6.7,14.9,14.9S50,76.9,41.7,76.9z M41.7,56.4
	c-3,0-5.5,2.5-5.5,5.5c0,3,2.5,5.5,5.5,5.5c3,0,5.5-2.5,5.5-5.5C47.2,58.9,44.8,56.4,41.7,56.4z"/>
<path display="none" d="M133.6,77.2c-8.2,0-14.9-6.7-14.9-14.9c0-8.2,6.7-14.9,14.9-14.9c8.2,0,14.9,6.7,14.9,14.9
	C148.5,70.5,141.8,77.2,133.6,77.2z M133.6,56.7c-3,0-5.5,2.5-5.5,5.5s2.5,5.5,5.5,5.5c3,0,5.5-2.5,5.5-5.5S136.6,56.7,133.6,56.7z"
	/>
<path d="M255.3,112.6h-69.2c0.2-2.4,0.3-4.9,0.3-7.4c0-44.8-36.4-81.2-81.2-81.2C91,24,76.9,27.8,64.6,34.8
	c-2.4,1.4-3.2,4.4-1.8,6.7c1.4,2.4,4.4,3.2,6.7,1.8c10.8-6.2,23.1-9.5,35.7-9.5c39.4,0,71.4,32,71.4,71.4s-32,71.4-71.4,71.4
	c-16.5,0-32-5.5-44.8-15.8c-1.3-1-3-1.3-4.5-0.9l-13.1,3.4l5.1-11.2c0.7-1.6,0.5-3.5-0.5-4.9c-8.9-12.3-13.6-26.8-13.6-42
	c0-12.6,3.3-24.9,9.6-35.7c1.4-2.4,0.6-5.4-1.8-6.7c-2.4-1.4-5.4-0.6-6.7,1.8C27.8,76.8,24,90.9,24,105.2c0,16.3,4.8,32,13.9,45.4
	l-8.2,18.1c-0.8,1.7-0.5,3.8,0.7,5.2c1.2,1.5,3.2,2.1,5,1.6l20.9-5.5c14,10.6,31.3,16.4,49,16.4c3.8,0,7.6-0.3,11.3-0.8v43.1
	c0,11.4,9.3,20.7,20.7,20.7h69.6l31.1,25.5c0.9,0.7,2,1.1,3.1,1.1c0.7,0,1.4-0.2,2.1-0.5c1.7-0.8,2.8-2.5,2.8-4.4v-21.7h9.4
	c11.4,0,20.7-9.3,20.7-20.7v-95.5C276,121.9,266.7,112.6,255.3,112.6z M266.2,228.8c0,6-4.9,10.8-10.8,10.8h-14.3
	c-2.7,0-4.9,2.2-4.9,4.9v16.2l-24.3-19.9c-1.3-1.2-2.5-1.2-5.1-1.2h-69.5c-6,0-10.8-4.9-10.8-10.8v-45.1
	c29.1-7.9,51.8-31.5,58.2-61.2h70.7c6,0,10.8,4.9,10.8,10.8V228.8z"/>
<path d="M219.8,195.6c1.7-0.8,2.8-2.5,2.8-4.4c0-2.7-2.2-4.9-4.9-4.9h-2L199.8,150c-0.8-1.8-2.6-2.9-4.5-2.9s-3.7,1.2-4.5,2.9
	l-15.9,36.2h-2c-2.7,0-4.9,2.2-4.9,4.9c0,2,1.2,3.7,2.8,4.4l-5.9,13.5c-1.1,2.5,0,5.4,2.5,6.5c2.5,1.1,5.4,0,6.5-2.5l7.4-17h27.9
	l7.4,17c0.8,1.8,2.6,2.9,4.5,2.9c0.7,0,1.3-0.1,2-0.4c2.5-1.1,3.6-4,2.5-6.5L219.8,195.6z M185.6,186.2l9.6-21.9l9.6,21.9H185.6z"/>
<path d="M50.3,56.2c1.3,0,2.6-0.5,3.5-1.4c0.9-0.9,1.4-2.2,1.4-3.5c0-1.3-0.5-2.6-1.4-3.5c-0.9-0.9-2.2-1.4-3.5-1.4
	c-1.3,0-2.6,0.5-3.5,1.4c-0.9,0.9-1.4,2.2-1.4,3.5c0,1.3,0.5,2.6,1.4,3.5C47.7,55.7,49,56.2,50.3,56.2z"/>
<path d="M74.8,135.2c-2.4,1.3-3.3,4.3-1.9,6.7c0.9,1.6,2.6,2.6,4.3,2.6c0.8,0,1.6-0.2,2.4-0.6c11-6,19.4-15.4,24.4-26.4
	c4.9,11,13.4,20.4,24.4,26.4c0.8,0.4,1.6,0.6,2.4,0.6c1.7,0,3.4-0.9,4.3-2.6c1.3-2.4,0.4-5.4-1.9-6.7c-12.8-7-21.5-19.6-23.6-33.9
	h21.9c2.7,0,4.9-2.2,4.9-4.9c0-2.7-2.2-4.9-4.9-4.9h-22.4V71c0-2.7-2.2-4.9-4.9-4.9S99,68.2,99,71v20.5H81.2c-2.7,0-4.9,2.2-4.9,4.9
	c0,2.7,2.2,4.9,4.9,4.9h17.3C96.3,115.5,87.7,128.1,74.8,135.2z"/>
</svg>
