<?xml version="1.0" encoding="utf-8"?>
<!-- Generator: Adobe Illustrator 23.0.1, SVG Export Plug-In . SVG Version: 6.00 Build 0)  -->
<svg version="1.1" id="Layer_1" xmlns="http://www.w3.org/2000/svg" xmlns:xlink="http://www.w3.org/1999/xlink" x="0px" y="0px" style="fill: #bfacaa;"
	 viewBox="0 0 300 300" enable-background="new 0 0 300 300" xml:space="preserve">
<g>
	<g>
		<path d="M150,0C67.2,0,0,67.2,0,150c0,82.8,67.2,150,150,150s150-67.2,150-150C300,67.2,232.8,0,150,0z M111,105.4
			c2.1-2.1,4.8-3.1,7.5-3.1s5.4,1,7.5,3.1l13.3,13.3v-3.9V62.5c0-5.9,4.8-10.6,10.6-10.6s10.6,4.8,10.6,10.6v52.3v4.6l4.6-4.6
			l9.4-9.4c2.1-2.1,4.8-3.1,7.5-3.1s5.4,1,7.5,3.1c2.6,2.5,3.5,6.1,2.9,9.4c0,0,0,0,0,0c0,0.2-0.1,0.5-0.2,0.7
			c-0.1,0.4-0.2,0.7-0.3,1.1c-0.1,0.2-0.2,0.5-0.3,0.7c-0.2,0.4-0.4,0.7-0.6,1.1c-0.1,0.2-0.2,0.4-0.3,0.6c-0.4,0.5-0.8,1-1.2,1.5
			l-15.1,15.1l-16.6,16.6c-2.1,2.1-4.8,3.1-7.5,3.1c0,0-0.1,0-0.1,0s-0.1,0-0.1,0c-2.7,0-5.4-1-7.5-3.1l-16.6-16.6L111,120.4
			c-0.5-0.5-0.9-1-1.2-1.5c-0.1-0.2-0.2-0.4-0.3-0.6c-0.2-0.3-0.4-0.7-0.6-1.1c-0.1-0.2-0.2-0.5-0.3-0.7c-0.1-0.3-0.2-0.7-0.3-1.1
			c-0.1-0.2-0.1-0.5-0.2-0.7C107.4,111.4,108.4,107.9,111,105.4z M231.6,209.3L231.6,209.3c0,14.3-14.1,25.6-32,25.6h-99.1
			c-17.9,0-32-11.2-32-25.6v-69c0-12.1,10.1-22,24-24.8c0.6,6,3.2,11.5,7.5,15.8l4.1,4.1h-3.6c-7.3,0-11.3,3.6-11.3,4.8v69
			c0,1.2,4,4.8,11.3,4.8h99.1c7.3,0,11.3-3.6,11.3-4.8v-69c0-1.2-4-4.8-11.3-4.8h-3.1l4.1-4.1c4.3-4.3,6.9-9.8,7.5-15.7
			c13.7,2.9,23.5,12.7,23.5,24.7V209.3z"/>
	</g>
</g>
</svg>
